<?xml version="1.0" encoding="utf-8"?>
<!-- Generator: Adobe Illustrator 15.0.0, SVG Export Plug-In . SVG Version: 6.00 Build 0)  -->
<!DOCTYPE svg PUBLIC "-//W3C//DTD SVG 1.1//EN" "http://www.w3.org/Graphics/SVG/1.1/DTD/svg11.dtd">
<!-- svg version="1.1" id="Layer_1" xmlns="http://www.w3.org/2000/svg" xmlns:xlink="http://www.w3.org/1999/xlink" x="0px" y="0px"
	 width="702.174px" height="119.718px" viewBox="0 0 702.174 119.718" enable-background="new 0 0 702.174 119.718"
	 xml:space="preserve"> -->
<svg version="1.1" id="Layer_1" xmlns="http://www.w3.org/2000/svg" xmlns:xlink="http://www.w3.org/1999/xlink" x="0px" y="0px"
	viewBox="0 0 702.174 119.718" enable-background="new 0 0 702.174 119.718"
	xml:space="preserve">
<path fill="#FFFFFF" d="M693.044,95.293v12.334h-37.257V95.293h7.677l-13.406-18.702l-8.344,7.403v11.299h6.871v12.334H610.3V95.293
	h9.817V19.55h-9.9L610.3,7.44h31.414v64.63l22.72-20.456h-10.497v-12.11h34.579v12.11h-10.311l-14.877,13.2l22.339,30.479H693.044z
	 M582.923,38.036c10.188-0.005,21.139,6.977,24.596,15.598c1.074,2.678,1.67,7.343,0.601,10.198c-2.558,6.83-6.472,8.982-13.197,8.4
	c-6.01-0.521-9.657-5.629-8.998-11.399c0.59-5.171,3.375-5.543,5.988-7.57c-0.601-2.851-3.46-5.027-11.39-5.027
	c-9.91,0-15.311,10.277-16.146,23.164c-0.479,7.356,0.46,24.544,13.748,24.83c17.838,0.384,18.202-10.594,19.195-12.599
	c3.8,0,7.601,0,11.399,0c-3.621,13.576-12.685,24.357-28.197,24.597c-17.188,0.266-26.26-4.265-33.957-14.314
	c-5.076-6.629-5.038-14.608-5.038-21.6c0-7.95,4.335-17.7,8.64-22.217C556.593,43.351,564.461,38.046,582.923,38.036z
	 M535.533,89.805c0.585,0.118,5.268,1.684,6.876,1.965c-5.481,24.636-32.899,19.231-33.881,1.965
	c-9.323,21.953-43.705,17.5-43.705-2.947c0-20.521,24.916-18.928,41.74-23.569c1.965-19.97-8.592-21.604-20.624-17.187
	c1.474,1.625,3.729,5.382,2.946,8.838c-2.517,11.112-20.132,8.476-21.116-0.491c-0.628-5.723,0.788-8.978,3.437-11.784
	c11.367-12.038,53.062-14.297,55.98,10.312c0.648,5.485,0,14.792,0,21.115c0,8.776-0.736,17.923,2.455,18.169
	C534.154,96.536,534.5,91.948,535.533,89.805z M488.395,80.476c-5.347,6.911-0.097,18.202,10.312,15.222
	c6.344-3.15,8.547-10.438,7.856-20.623C501.195,76.172,492.154,75.615,488.395,80.476z M455.722,64.208
	c12.674-1.91,11.418-22.547,1.481-25.163c-12.899-3.396-22.891,5.675-26.645,16.281c0-5.099,0-15.788,0-15.788h-30.098v12.335h9.992
	v43.419h-9.992v12.334h43.914V95.293c0,0-8.718,0-12.827,0c0-3.424,0-26.146,0-26.146c0.678-8.376,3.574-14.896,11.347-16.288
	C441.683,60.292,448.237,65.336,455.722,64.208z M337.859,50.095c-4.304,4.517-8.639,14.267-8.639,22.217
	c0,6.99-0.038,14.971,5.038,21.6c7.696,10.051,16.769,14.58,33.958,14.314c15.512-0.238,24.574-11.021,28.195-24.597
	c-3.8,0-7.599,0-11.398,0c-0.994,2.004-1.357,12.981-19.197,12.599c-13.287-0.286-14.225-17.474-13.748-24.83
	c0.837-12.886,6.237-23.164,16.148-23.164c7.928,0,10.789,2.177,11.389,5.027c-2.612,2.026-5.399,2.399-5.989,7.57
	c-0.658,5.771,2.989,10.88,9,11.399c6.727,0.582,10.641-1.57,13.196-8.4c1.07-2.855,0.475-7.521-0.6-10.198
	c-3.457-8.621-14.407-15.604-24.597-15.598C352.154,38.046,344.286,43.351,337.859,50.095z M307.002,52.859
	c-7.772,1.391-10.669,7.912-11.348,16.288c0,0,0,22.723,0,26.146c4.11,0,12.827,0,12.827,0v12.334h-43.914V95.293h9.992V51.874
	h-9.992V39.538h30.098c0,0,0,10.689,0,15.788c3.753-10.606,13.744-19.679,26.645-16.281c9.937,2.616,11.192,23.253-1.481,25.163
	C312.343,65.336,305.79,60.292,307.002,52.859z M258.595,76.691c-15.22,0-30.444,0-45.667,0c0.625,7.147,0.876,13.131,5.402,17.188
	c8.553,7.664,26.871,3.045,28.479-8.349c3.766,0,7.528,0,11.293,0c-2.124,8.944-5.555,15.205-11.785,19.149
	c-14.191,8.986-36.855,4.53-45.174-3.928c-20.291-20.634-10.36-58.93,21.115-62.361C247.094,35.682,259.142,51.464,258.595,76.691z
	 M233.552,51.157c-9.042-7.173-20.734-1.613-20.624,16.205c8.347,0,17.188,0,25.535,0C237.533,60.589,237.391,54.204,233.552,51.157
	z M191.172,39.236h-29.996v12.378h8.859l-15.18,41.31l-14.063-41.31h9.585V39.236h-42.595v12.378h9.147l22.05,56.013h10.394h10.487
	l22.448-56.013h8.862L191.172,39.236L191.172,39.236z M105.857,59.659c0,28.329-21.17,49.962-49.253,49.962
	c-28.617,0-49.253-20.434-49.253-49.962c0-27.594,20.487-49.963,49.253-49.963C84.988,9.696,105.857,32.065,105.857,59.659z
	 M55.61,21.498c-14.122,0-22.521,11.721-22.521,38.415c0,23.643,8.773,38.416,22.521,38.416c16.138,0,23.723-12.363,23.723-38.416
	C79.332,33.687,71.424,21.498,55.61,21.498z"/>
</svg>
